<svg xmlns="http://www.w3.org/2000/svg" viewBox="0 0 472.61 531.26"><defs><style>.cls-1{fill:#9e1b34;}.cls-2{font-size:266.82px;font-family:VarelaRound-Regular, Varela Round;}.cls-2,.cls-3{fill:#fff;}.cls-4{fill:#877378;}</style></defs><title>hardware</title><g id="Layer_1" data-name="Layer 1"><path class="cls-1" d="M472.61,375.07V156.19a46.75,46.75,0,0,0-23.37-40.49L259.68,6.26a46.75,46.75,0,0,0-46.75,0L23.37,115.7A46.75,46.75,0,0,0,0,156.19V375.07a46.75,46.75,0,0,0,23.37,40.49L212.93,525a46.75,46.75,0,0,0,46.75,0L449.23,415.55A46.75,46.75,0,0,0,472.61,375.07Z"/><text class="cls-2" transform="translate(61.17 340.74) scale(0.82 1)">&lt;<tspan class="cls-1" x="154.75" y="0">/</tspan><tspan x="272.96" y="0">&gt;</tspan></text><polygon class="cls-3" points="211.45 364.76 178.62 355.93 227.65 193.08 250.75 199.29 211.45 364.76"/><rect class="cls-4" x="197.33" y="148.38" width="98.17" height="41.93" transform="translate(52.45 -58.2) rotate(15.06)"/><polygon class="cls-3" points="258.84 201.47 219.55 190.9 224.34 134.63 282.94 150.39 258.84 201.47"/></g></svg>