<?xml version="1.0" encoding="utf-8"?>
<!-- Generator: Adobe Illustrator 21.1.0, SVG Export Plug-In . SVG Version: 6.00 Build 0)  -->
<svg version="1.1" xmlns="http://www.w3.org/2000/svg" xmlns:xlink="http://www.w3.org/1999/xlink" x="0px" y="0px"
	 viewBox="0 0 472.6 531.3" style="enable-background:new 0 0 472.6 531.3;" xml:space="preserve">
<style type="text/css">
	.st0{fill:#9E1B34;}
</style>
<g id="Layer_2">
</g>
<g id="Layer_1">
	<path class="st0" d="M449.2,115.7L259.7,6.3c-14.5-8.4-32.3-8.4-46.7,0L23.4,115.7C8.9,124.1,0,139.5,0,156.2v218.9
		c0,16.7,8.9,32.1,23.4,40.5L212.9,525c14.5,8.4,32.3,8.4,46.7,0l189.6-109.4c14.5-8.4,23.4-23.8,23.4-40.5V156.2
		C472.6,139.5,463.7,124.1,449.2,115.7z M170.2,304.5c1.7,0.9,3.2,2.3,4.3,4.1c1.1,1.9,1.6,3.9,1.6,6c0,3-0.8,5.6-2.5,7.6
		c-1.7,2-3.8,3.1-6.2,3.1c-1.2,0-2.3-0.3-3.5-0.8l-87.2-47.8c-2.5-1.4-4.4-3.3-5.8-5.7c-1.4-2.4-2.1-5.1-2.1-8.1v-2.1
		c0-3,0.7-5.7,2.1-8.1c1.4-2.4,3.3-4.3,5.8-5.7l87.2-47.8c1.2-0.5,2.3-0.8,3.5-0.8c2.5,0,4.6,1,6.2,3.1c1.7,2,2.5,4.6,2.5,7.6
		c0,2.1-0.5,4.1-1.6,6c-1.1,1.9-2.5,3.2-4.3,4.1l-78.7,42.7L170.2,304.5z M273.8,151.8l-57.9,206.8c-0.6,2.1-1.6,3.9-3.1,5.3
		c-1.5,1.4-3.3,2.1-5.5,2.1c-2.6,0-4.8-1.1-6.4-3.2c-1.7-2.1-2.5-4.7-2.5-7.7c0-1.1,0.2-2.4,0.7-4L257,144.4
		c0.6-2.1,1.6-3.9,3.1-5.3c1.5-1.4,3.3-2.1,5.5-2.1c2.6,0,4.8,1.1,6.4,3.2c1.7,2.1,2.5,4.7,2.5,7.7
		C274.4,148.9,274.2,150.2,273.8,151.8z M403.8,262.8c0,3-0.7,5.7-2.1,8.1c-1.4,2.4-3.3,4.3-5.8,5.7l-87.2,47.8
		c-1,0.5-2.2,0.8-3.5,0.8c-2.5,0-4.6-1-6.2-3.1c-1.7-2-2.5-4.6-2.5-7.6c0-2.1,0.5-4.1,1.6-6c1.1-1.9,2.5-3.2,4.3-4.1l78.7-42.7
		l-78.7-42.7c-1.7-0.9-3.2-2.3-4.3-4.1c-1.1-1.9-1.6-3.9-1.6-6c0-3,0.8-5.6,2.5-7.6c1.7-2,3.7-3.1,6.2-3.1c1.3,0,2.5,0.3,3.5,0.8
		l87.2,47.8c2.5,1.4,4.4,3.3,5.8,5.7c1.4,2.4,2.1,5.1,2.1,8.1V262.8z"/>
</g>
</svg>
