<svg xmlns="http://www.w3.org/2000/svg" viewBox="0 0 472.61 531.26"><defs><style>.cls-1{fill:#9e1b34;}.cls-2{fill:#fff;}</style></defs><title>og_logo_darkoutline_fill_red</title><g id="Layer_1" data-name="Layer 1"><path class="cls-1" d="M449.23,415.55,259.68,525a46.75,46.75,0,0,1-46.75,0L23.37,415.55A46.75,46.75,0,0,1,0,375.07V156.19A46.75,46.75,0,0,1,23.37,115.7L212.93,6.26a46.75,46.75,0,0,1,46.75,0L449.23,115.7a46.75,46.75,0,0,1,23.37,40.49V375.07A46.75,46.75,0,0,1,449.23,415.55Z"/><path class="cls-2" d="M430.51,404.74,259.68,503.37a46.75,46.75,0,0,1-46.75,0L42.1,404.74a46.75,46.75,0,0,1-23.37-40.49V167A46.75,46.75,0,0,1,42.1,126.51L212.93,27.88a46.75,46.75,0,0,1,46.75,0l170.83,98.63A46.75,46.75,0,0,1,453.89,167V364.26A46.75,46.75,0,0,1,430.51,404.74Z"/><path class="cls-1" d="M163.87,324.46,76.69,276.7A15.36,15.36,0,0,1,70.9,271a16,16,0,0,1-2.08-8.14v-2.13a16,16,0,0,1,2.08-8.14,15.4,15.4,0,0,1,5.79-5.74l87.18-47.76a8.32,8.32,0,0,1,3.5-.8,7.76,7.76,0,0,1,6.23,3.07,12.34,12.34,0,0,1,.87,13.61,10.34,10.34,0,0,1-4.26,4.14L91.55,261.76l78.66,42.69a10.37,10.37,0,0,1,4.26,4.14,12.34,12.34,0,0,1-.87,13.61,7.75,7.75,0,0,1-6.23,3.07A8.32,8.32,0,0,1,163.87,324.46Z"/><path class="cls-1" d="M271.92,140.09a12.17,12.17,0,0,1,2.51,7.74,15.76,15.76,0,0,1-.66,4l-57.9,206.79a11.59,11.59,0,0,1-3.06,5.34,7.51,7.51,0,0,1-5.46,2.13,7.83,7.83,0,0,1-6.45-3.2,12.14,12.14,0,0,1-2.51-7.74,15.76,15.76,0,0,1,.66-4L257,144.36A11.53,11.53,0,0,1,260,139a7.51,7.51,0,0,1,5.46-2.13A7.84,7.84,0,0,1,271.92,140.09Z"/><path class="cls-1" d="M299,322.2a12.33,12.33,0,0,1-.87-13.61,10.37,10.37,0,0,1,4.26-4.14l78.66-42.69L302.4,219.07a10.34,10.34,0,0,1-4.26-4.14,12.33,12.33,0,0,1,.87-13.61,7.75,7.75,0,0,1,6.23-3.07,7.43,7.43,0,0,1,3.5.8l87.18,47.76a15.45,15.45,0,0,1,5.79,5.74,16,16,0,0,1,2.08,8.14v2.13a16,16,0,0,1-2.08,8.14,15.41,15.41,0,0,1-5.79,5.74l-87.18,47.76a7.43,7.43,0,0,1-3.5.8A7.74,7.74,0,0,1,299,322.2Z"/></g></svg>