<svg id="Layer_1" data-name="Layer 1" xmlns="http://www.w3.org/2000/svg" viewBox="0 0 472.6 531.3"><defs><style>.cls-1{fill:#fff;}.cls-2{fill:#9e1b34;}.cls-3{isolation:isolate;}</style></defs><title>Artboard 1outline_fill_white</title><g id="Layer_1-2" data-name="Layer 1"><path class="cls-1" d="M449.2,415.6,259.7,525a46.42,46.42,0,0,1-46.7,0L23.4,415.6A46.78,46.78,0,0,1,0,375.1V156.2a46.78,46.78,0,0,1,23.4-40.5L212.9,6.3a46.42,46.42,0,0,1,46.7,0L449.2,115.7a46.78,46.78,0,0,1,23.4,40.5V375.1A46.78,46.78,0,0,1,449.2,415.6Z"/><path class="cls-2" d="M430.5,404.7,259.7,503.3a46.42,46.42,0,0,1-46.7,0L42.1,404.7a46.78,46.78,0,0,1-23.4-40.5V167a46.78,46.78,0,0,1,23.4-40.5L212.9,27.9a46.42,46.42,0,0,1,46.7,0l170.8,98.6A46.78,46.78,0,0,1,453.8,167V364.3A46.2,46.2,0,0,1,430.5,404.7Z"/><g class="cls-3"><path class="cls-1" d="M163.87,324.46,76.69,276.7A15.36,15.36,0,0,1,70.9,271a16,16,0,0,1-2.08-8.14v-2.13a16,16,0,0,1,2.08-8.14,15.4,15.4,0,0,1,5.79-5.74l87.18-47.76a8.32,8.32,0,0,1,3.5-.8,7.76,7.76,0,0,1,6.23,3.07,12.33,12.33,0,0,1,.87,13.61,10.35,10.35,0,0,1-4.26,4.14L91.54,261.76l78.66,42.69a10.37,10.37,0,0,1,4.26,4.14,12.33,12.33,0,0,1-.87,13.61,7.75,7.75,0,0,1-6.23,3.07A8.32,8.32,0,0,1,163.87,324.46Z"/><path class="cls-1" d="M271.92,140.09a12.17,12.17,0,0,1,2.51,7.74,15.77,15.77,0,0,1-.65,4l-57.9,206.79a11.58,11.58,0,0,1-3.06,5.34,7.51,7.51,0,0,1-5.46,2.13,7.83,7.83,0,0,1-6.45-3.2,12.15,12.15,0,0,1-2.51-7.74,15.76,15.76,0,0,1,.66-4l57.9-206.79A11.52,11.52,0,0,1,260,139a7.5,7.5,0,0,1,5.46-2.13A7.84,7.84,0,0,1,271.92,140.09Z"/><path class="cls-1" d="M299,322.2a12.34,12.34,0,0,1-.87-13.61,10.37,10.37,0,0,1,4.26-4.14l78.66-42.69L302.4,219.07a10.34,10.34,0,0,1-4.26-4.14,12.34,12.34,0,0,1,.87-13.61,7.75,7.75,0,0,1,6.23-3.07,7.43,7.43,0,0,1,3.5.8l87.18,47.76a15.44,15.44,0,0,1,5.79,5.74,16,16,0,0,1,2.08,8.14v2.13a16,16,0,0,1-2.08,8.14,15.4,15.4,0,0,1-5.79,5.74l-87.18,47.76a7.43,7.43,0,0,1-3.5.8A7.74,7.74,0,0,1,299,322.2Z"/></g></g></svg>