<?xml version="1.0" encoding="utf-8"?>
<!-- Generator: Adobe Illustrator 21.1.0, SVG Export Plug-In . SVG Version: 6.00 Build 0)  -->
<svg version="1.1" xmlns="http://www.w3.org/2000/svg" xmlns:xlink="http://www.w3.org/1999/xlink" x="0px" y="0px"
	 viewBox="0 0 472.6 531.3" style="enable-background:new 0 0 472.6 531.3;" xml:space="preserve">
<style type="text/css">
	.st0{fill:#9E1B34;}
	.st1{font-family:'VarelaRound-Regular';}
	.st2{font-size:266.8247px;}
</style>
<g id="Layer_2">
</g>
<g id="Layer_1">
	<path class="st0" d="M449.2,115.7L259.7,6.3c-14.5-8.4-32.3-8.4-46.7,0L23.4,115.7C8.9,124.1,0,139.5,0,156.2v218.9
		c0,16.7,8.9,32.1,23.4,40.5L212.9,525c14.5,8.4,32.3,8.4,46.7,0l189.6-109.4c14.5-8.4,23.4-23.8,23.4-40.5V156.2
		C472.6,139.5,463.7,124.1,449.2,115.7z M453.9,364.3c0,16.7-8.9,32.1-23.4,40.5l-170.8,98.6c-14.5,8.4-32.3,8.4-46.7,0L42.1,404.7
		c-14.5-8.4-23.4-23.8-23.4-40.5V167c0-16.7,8.9-32.1,23.4-40.5l170.8-98.6c14.5-8.4,32.3-8.4,46.7,0l170.8,98.6
		c14.5,8.4,23.4,23.8,23.4,40.5V364.3z"/>
	<text transform="matrix(0.8189 0 0 1 61.1731 340.7397)" class="st0 st1 st2">&lt;/&gt;</text>
</g>
</svg>
