<?xml version="1.0" encoding="utf-8"?>
<!-- Generator: Adobe Illustrator 21.1.0, SVG Export Plug-In . SVG Version: 6.00 Build 0)  -->
<svg version="1.1" xmlns="http://www.w3.org/2000/svg" xmlns:xlink="http://www.w3.org/1999/xlink" x="0px" y="0px"
	 viewBox="0 0 472.6 531.3" style="enable-background:new 0 0 472.6 531.3;" xml:space="preserve">
<style type="text/css">
	.st0{fill:#9E1B34;}
	.st1{fill:#FFFFFF;}
	.st2{fill:#444444;}
	.st3{font-family:'VarelaRound-Regular';}
	.st4{font-size:266.8247px;}
</style>
<g id="Layer_2">
</g>
<g id="Layer_1">
	<path class="st0" d="M449.2,415.6L259.7,525c-14.5,8.4-32.3,8.4-46.7,0L23.4,415.6C8.9,407.2,0,391.8,0,375.1V156.2
		c0-16.7,8.9-32.1,23.4-40.5L212.9,6.3c14.5-8.4,32.3-8.4,46.7,0l189.6,109.4c14.5,8.4,23.4,23.8,23.4,40.5v218.9
		C472.6,391.8,463.7,407.2,449.2,415.6z"/>
	<path class="st1" d="M430.5,404.7l-170.8,98.6c-14.5,8.4-32.3,8.4-46.7,0L42.1,404.7c-14.5-8.4-23.4-23.8-23.4-40.5V167
		c0-16.7,8.9-32.1,23.4-40.5l170.8-98.6c14.5-8.4,32.3-8.4,46.7,0l170.8,98.6c14.5,8.4,23.4,23.8,23.4,40.5v197.3
		C453.9,381,445,396.4,430.5,404.7z"/>
	<text transform="matrix(0.8189 0 0 1 61.1731 340.7397)" class="st2 st3 st4">&lt;/&gt;</text>
</g>
</svg>
