<svg id="Layer_1" data-name="Layer 1" xmlns="http://www.w3.org/2000/svg" viewBox="0 0 343 371.75"><defs><style>.cls-1{fill:#efefef;}.cls-2{fill:#16d816;}.cls-3{fill:#2b871e;}.cls-4{fill:#a3a3a3;}.cls-5{opacity:0.12;}.cls-6{fill:#a0a0a0;}.cls-7{fill:#fff;}</style></defs><title>logo</title><rect class="cls-1" y="28.75" width="343" height="343" rx="12.59" ry="12.59"/><path class="cls-2" d="M12.59,28.75H330.41A12.59,12.59,0,0,1,343,41.33V115.8H0V41.33A12.59,12.59,0,0,1,12.59,28.75Z"/><rect class="cls-3" x="16.78" y="43.43" width="23.08" height="23.08" rx="8.92" ry="8.92"/><path class="cls-4" d="M27.8,0h0a6.82,6.82,0,0,1,6.82,6.82v44a6.82,6.82,0,0,1-6.82,6.82h0A6.82,6.82,0,0,1,21,50.87v-44A6.82,6.82,0,0,1,27.8,0Z"/><rect class="cls-3" x="304.19" y="43.43" width="23.08" height="23.08" rx="8.92" ry="8.92"/><path class="cls-4" d="M315.2,0h0A6.82,6.82,0,0,1,322,6.82v44a6.82,6.82,0,0,1-6.82,6.82h0a6.82,6.82,0,0,1-6.82-6.82h0v-44A6.82,6.82,0,0,1,315.18,0Z"/><g class="cls-5"><rect class="cls-6" x="284.26" y="313.01" width="26.22" height="26.22"/><rect class="cls-6" x="242.3" y="313.01" width="26.22" height="26.22"/><rect class="cls-6" x="200.35" y="313.01" width="26.22" height="26.22"/><rect class="cls-6" x="158.39" y="313.01" width="26.22" height="26.22"/><rect class="cls-6" x="116.43" y="313.01" width="26.22" height="26.22"/><rect class="cls-6" x="74.47" y="313.01" width="26.22" height="26.22"/><rect class="cls-6" x="32.52" y="313.01" width="26.22" height="26.22"/><rect class="cls-6" x="284.26" y="271.05" width="26.22" height="26.22"/><rect class="cls-6" x="242.3" y="271.05" width="26.22" height="26.22"/><rect class="cls-6" x="200.35" y="271.05" width="26.22" height="26.22"/><rect class="cls-6" x="158.39" y="271.05" width="26.22" height="26.22"/><rect class="cls-6" x="116.43" y="271.05" width="26.22" height="26.22"/><rect class="cls-6" x="74.47" y="271.05" width="26.22" height="26.22"/><rect class="cls-6" x="32.52" y="271.05" width="26.22" height="26.22"/><rect class="cls-6" x="284.26" y="229.09" width="26.22" height="26.22"/><rect class="cls-6" x="242.3" y="229.09" width="26.22" height="26.22"/><rect class="cls-6" x="200.35" y="229.09" width="26.22" height="26.22"/><rect class="cls-6" x="158.39" y="229.09" width="26.22" height="26.22"/><rect class="cls-6" x="116.43" y="229.09" width="26.22" height="26.22"/><rect class="cls-6" x="74.47" y="229.09" width="26.22" height="26.22"/><rect class="cls-6" x="32.52" y="229.09" width="26.22" height="26.22"/><rect class="cls-6" x="284.26" y="187.13" width="26.22" height="26.22"/><rect class="cls-6" x="242.3" y="187.13" width="26.22" height="26.22"/><rect class="cls-6" x="200.35" y="187.13" width="26.22" height="26.22"/><rect class="cls-6" x="158.39" y="187.13" width="26.22" height="26.22"/><rect class="cls-6" x="116.43" y="187.13" width="26.22" height="26.22"/><rect class="cls-6" x="74.47" y="187.13" width="26.22" height="26.22"/><rect class="cls-6" x="32.52" y="187.13" width="26.22" height="26.22"/><rect class="cls-6" x="284.26" y="145.18" width="26.22" height="26.22"/><rect class="cls-6" x="242.3" y="145.18" width="26.22" height="26.22"/><rect class="cls-6" x="200.35" y="145.18" width="26.22" height="26.22"/><rect class="cls-6" x="158.39" y="145.18" width="26.22" height="26.22"/><rect class="cls-6" x="116.43" y="145.18" width="26.22" height="26.22"/><rect class="cls-6" x="74.47" y="145.18" width="26.22" height="26.22"/><rect class="cls-6" x="32.52" y="145.18" width="26.22" height="26.22"/></g><rect class="cls-1" x="22.03" y="136.78" width="252.34" height="41.96"/><g id="Layer_1-2" data-name="Layer 1-2"><path class="cls-2" d="M228.67,200.46,177.79,171.1a12.58,12.58,0,0,0-12.58,0l-50.88,29.36A12.58,12.58,0,0,0,108,211.33V270a12.58,12.58,0,0,0,6.29,10.87l50.88,29.36a12.58,12.58,0,0,0,12.58,0l50.88-29.36A12.58,12.58,0,0,0,235,270V211.33A12.58,12.58,0,0,0,228.67,200.46Zm-74.54,50.66a2.78,2.78,0,0,1,1.14,1.11,3.31,3.31,0,0,1-.23,3.65,2.1,2.1,0,0,1-1.67.83,2.23,2.23,0,0,1-.94-.21L129,243.69a4.12,4.12,0,0,1-1.55-1.53,4.29,4.29,0,0,1-.56-2.18v-.57a4.29,4.29,0,0,1,.56-2.18,4.13,4.13,0,0,1,1.55-1.54l23.39-12.82a2.23,2.23,0,0,1,1.11-.21,2.51,2.51,0,0,1,1.74,1.19,3.31,3.31,0,0,1,0,3.28,2.78,2.78,0,0,1-1.14,1.11L133,239.68Zm27.39-40.91L166,265.7a3.15,3.15,0,0,1-.82,1.44,2,2,0,0,1-1.47.57,2.1,2.1,0,0,1-1.73-.86,3.26,3.26,0,0,1-.67-2.1,4.2,4.2,0,0,1,.18-1L177,208.21a3.15,3.15,0,0,1,.81-1.44,2,2,0,0,1,1.47-.57,2.1,2.1,0,0,1,1.73.86,3.26,3.26,0,0,1,.67,2.1,4.2,4.2,0,0,1-.14,1ZM216.08,240a4.29,4.29,0,0,1-.56,2.18,4.13,4.13,0,0,1-1.55,1.54l-23.39,12.82a2,2,0,0,1-.94.21,2.1,2.1,0,0,1-1.67-.83,3.3,3.3,0,0,1-.23-3.65,2.78,2.78,0,0,1,1.14-1.11L210,239.71l-21.1-11.45a2.78,2.78,0,0,1-1.14-1.11,3.3,3.3,0,0,1,.23-3.65,2.1,2.1,0,0,1,1.67-.83,2,2,0,0,1,.94.21L214,235.69a4.2,4.2,0,0,1,1.55,1.54,4.29,4.29,0,0,1,.56,2.18Z"/></g><path class="cls-7" d="M59,50.29h9.5v10h8.69v-10h9.5V78.7h-9.5V68.52h-8.7V78.7H59Z"/><path class="cls-7" d="M88.82,72.41v-.08c0-4.42,3.29-6.9,8.44-6.9a17.26,17.26,0,0,1,5.24.81v-.37c0-2-1.26-3.21-4.1-3.21a16,16,0,0,0-6.13,1.26L90.65,57.8A25.34,25.34,0,0,1,100,56.18c4.51,0,7.43.93,9.38,2.88,1.66,1.66,2.31,3.81,2.31,7V78.7h-9.21V76.47a8.35,8.35,0,0,1-6.37,2.76C91.83,79.23,88.82,76.8,88.82,72.41Zm13.76-1.91v-.93a6.34,6.34,0,0,0-2.11-.37c-1.83,0-2.84,1.1-2.84,2.48v.08a2.06,2.06,0,0,0,2,2.15h.14C101.36,73.91,102.58,72.61,102.58,70.5Z"/><path class="cls-7" d="M113.58,67.74v-.08c0-6.21,4.87-11.61,12.1-11.61a10.59,10.59,0,0,1,10,6.13l-6.62,3.73a3.56,3.56,0,0,0-3.25-2.23,3.61,3.61,0,0,0-3.42,3.79v.19c0,2.31,1.46,4,3.29,4,1.62,0,2.56-.81,3.45-2.23l6.7,3.82c-2,3.69-5.36,6-10.63,6A11.49,11.49,0,0,1,113.58,67.9Q113.58,67.82,113.58,67.74Z"/><path class="cls-7" d="M137.28,49.07h9.21V63.36l4.75-6.82h10l-6.94,9,7.06,13.15H151.5l-3.21-6.09L146.5,75v3.7h-9.21Z"/><path class="cls-7" d="M162.44,50.29h9.9l6.09,10,6.09-10h9.9V78.7H185V64.62l-6.54,10.11h-.16l-6.54-10.11V78.7h-9.29Z"/><path class="cls-7" d="M196.58,72.41v-.08c0-4.42,3.29-6.9,8.44-6.9a17.26,17.26,0,0,1,5.24.81v-.37c0-2-1.26-3.21-4.1-3.21A16,16,0,0,0,200,63.93l-1.6-6.13a25.34,25.34,0,0,1,9.33-1.62c4.5,0,7.43.93,9.38,2.88,1.66,1.66,2.31,3.81,2.31,7V78.7h-9.21V76.47a8.35,8.35,0,0,1-6.37,2.76C199.58,79.23,196.58,76.8,196.58,72.41Zm13.76-1.91v-.93a6.34,6.34,0,0,0-2.11-.37c-1.83,0-2.84,1.1-2.84,2.48v.08a2.06,2.06,0,0,0,2,2.15h.14C209.12,73.91,210.34,72.61,210.34,70.5Z"/><path class="cls-7" d="M222,56.54h9.21V61c1.26-3,3.29-5,6.94-4.79V66h-1c-3.9,0-6,2.15-6,7.06V78.7H222Z"/><path class="cls-7" d="M238.87,67.74v-.08C238.87,61.45,243.74,56,251,56a10.59,10.59,0,0,1,10,6.13l-6.62,3.73a3.56,3.56,0,0,0-3.25-2.23,3.61,3.61,0,0,0-3.42,3.79v.19c0,2.31,1.46,4,3.29,4,1.62,0,2.56-.81,3.45-2.23l6.7,3.82c-2,3.69-5.36,6-10.63,6a11.49,11.49,0,0,1-11.62-11.36Q238.87,67.82,238.87,67.74Z"/><path class="cls-7" d="M262.57,49.07h9.21V59.5a8.48,8.48,0,0,1,6.78-3.5c4.67,0,7.59,3.08,7.59,8.08V78.7h-9.21V67.05c0-1.91-1.14-3-2.52-3a2.74,2.74,0,0,0-2.65,2.83q0,.09,0,.17V78.7h-9.21Z"/><path class="cls-1" d="M142,101.88l7.18-5.15c1.09-.77,1.51-1.44,1.51-2.1s-.57-1.29-1.56-1.29-1.91.62-3.34,2.15L142,92.25c2-2.48,4-3.81,7.65-3.81,4,0,6.81,2.38,6.81,5.67v0c0,2.65-1.41,4.08-3.49,5.42l-3.09,2h6.76v4.53H142Z"/><path class="cls-1" d="M157.79,97.48v0c0-4.78,3.12-9,8.37-9s8.32,4.21,8.32,9v0c0,4.78-3.12,9-8.37,9S157.79,102.25,157.79,97.48Zm10.94,0v0c0-2.38-1.06-4-2.62-4s-2.57,1.58-2.57,4v0c0,2.38,1.06,4,2.62,4S168.73,99.85,168.73,97.48Z"/><path class="cls-1" d="M178.21,93.71l-2.82.62-1-4.28,5.17-1.41h4.38v17.45h-5.69Z"/><path class="cls-1" d="M185.83,104.43l2.5-3.74A5.92,5.92,0,0,0,192,102c1.86,0,2.85-1.16,3-3.29a5.36,5.36,0,0,1-3.84,1.61A5.26,5.26,0,0,1,185.73,95v0c0-4.13,3.19-6.51,7.2-6.51a7.31,7.31,0,0,1,5.64,2.13c1.26,1.26,2.1,3.34,2.1,6.31v0c0,5.69-3,9.58-8.44,9.58A10.43,10.43,0,0,1,185.83,104.43Zm9.23-9.75v0a2,2,0,0,0-1.93-2.08,1.91,1.91,0,0,0-1.88,2.05v0a1.88,1.88,0,0,0,1.93,2A1.85,1.85,0,0,0,195.06,94.68Z"/></svg>