<svg id="Layer_1" data-name="Layer 1" xmlns="http://www.w3.org/2000/svg" viewBox="0 0 995.04 523.4"><defs><style>.cls-1{fill:#efefef;}.cls-2{fill:#16d816;}.cls-3{fill:#2b871e;}.cls-4{fill:#a3a3a3;}.cls-5{opacity:0.12;}.cls-6{fill:#a0a0a0;}.cls-7{fill:#fff;}</style></defs><title>timeline</title><rect class="cls-1" x="334.42" y="28.75" width="343" height="343" rx="12.59" ry="12.59"/><path class="cls-2" d="M347,28.75H664.84a12.59,12.59,0,0,1,12.59,12.59v74.47h-343V41.33A12.59,12.59,0,0,1,347,28.75Z"/><rect class="cls-3" x="351.21" y="43.43" width="23.08" height="23.08" rx="8.92" ry="8.92"/><path class="cls-4" d="M362.22,0h0A6.82,6.82,0,0,1,369,6.82V50.87a6.82,6.82,0,0,1-6.82,6.82h0a6.82,6.82,0,0,1-6.82-6.82V6.82A6.82,6.82,0,0,1,362.22,0Z"/><rect class="cls-3" x="638.61" y="43.43" width="23.08" height="23.08" rx="8.92" ry="8.92"/><path class="cls-4" d="M649.63,0h0a6.82,6.82,0,0,1,6.82,6.82V50.87a6.82,6.82,0,0,1-6.82,6.82h0a6.82,6.82,0,0,1-6.82-6.82V6.82A6.82,6.82,0,0,1,649.63,0Z"/><g class="cls-5"><rect class="cls-6" x="618.68" y="313.01" width="26.22" height="26.22"/><rect class="cls-6" x="576.73" y="313.01" width="26.22" height="26.22"/><rect class="cls-6" x="534.77" y="313.01" width="26.22" height="26.22"/><rect class="cls-6" x="492.81" y="313.01" width="26.22" height="26.22"/><rect class="cls-6" x="450.86" y="313.01" width="26.22" height="26.22"/><rect class="cls-6" x="408.9" y="313.01" width="26.22" height="26.22"/><rect class="cls-6" x="366.94" y="313.01" width="26.22" height="26.22"/><rect class="cls-6" x="618.68" y="271.05" width="26.22" height="26.22"/><rect class="cls-6" x="576.73" y="271.05" width="26.22" height="26.22"/><rect class="cls-6" x="534.77" y="271.05" width="26.22" height="26.22"/><rect class="cls-6" x="492.81" y="271.05" width="26.22" height="26.22"/><rect class="cls-6" x="450.86" y="271.05" width="26.22" height="26.22"/><rect class="cls-6" x="408.9" y="271.05" width="26.22" height="26.22"/><rect class="cls-6" x="366.94" y="271.05" width="26.22" height="26.22"/><rect class="cls-6" x="618.68" y="229.09" width="26.22" height="26.22"/><rect class="cls-6" x="576.73" y="229.09" width="26.22" height="26.22"/><rect class="cls-6" x="534.77" y="229.09" width="26.22" height="26.22"/><rect class="cls-6" x="492.81" y="229.09" width="26.22" height="26.22"/><rect class="cls-6" x="450.86" y="229.09" width="26.22" height="26.22"/><rect class="cls-6" x="408.9" y="229.09" width="26.22" height="26.22"/><rect class="cls-6" x="366.94" y="229.09" width="26.22" height="26.22"/><rect class="cls-6" x="618.68" y="187.13" width="26.22" height="26.22"/><rect class="cls-6" x="576.73" y="187.13" width="26.22" height="26.22"/><rect class="cls-6" x="534.77" y="187.13" width="26.22" height="26.22"/><rect class="cls-6" x="492.81" y="187.13" width="26.22" height="26.22"/><rect class="cls-6" x="450.86" y="187.13" width="26.22" height="26.22"/><rect class="cls-6" x="408.9" y="187.13" width="26.22" height="26.22"/><rect class="cls-6" x="366.94" y="187.13" width="26.22" height="26.22"/><rect class="cls-6" x="618.68" y="145.18" width="26.22" height="26.22"/><rect class="cls-6" x="576.73" y="145.18" width="26.22" height="26.22"/><rect class="cls-6" x="534.77" y="145.18" width="26.22" height="26.22"/><rect class="cls-6" x="492.81" y="145.18" width="26.22" height="26.22"/><rect class="cls-6" x="450.86" y="145.18" width="26.22" height="26.22"/><rect class="cls-6" x="408.9" y="145.18" width="26.22" height="26.22"/><rect class="cls-6" x="366.94" y="145.18" width="26.22" height="26.22"/></g><rect class="cls-1" x="356.45" y="136.78" width="252.34" height="41.96"/><g id="Layer_1-2" data-name="Layer 1-2"><path class="cls-2" d="M563.09,200.46,512.21,171.1a12.58,12.58,0,0,0-12.58,0l-50.88,29.36a12.58,12.58,0,0,0-6.29,10.87V270a12.58,12.58,0,0,0,6.29,10.87l50.88,29.36a12.58,12.58,0,0,0,12.58,0l50.88-29.36A12.58,12.58,0,0,0,569.38,270V211.33A12.58,12.58,0,0,0,563.09,200.46Zm-74.54,50.66a2.78,2.78,0,0,1,1.14,1.11,3.31,3.31,0,0,1-.23,3.65,2.1,2.1,0,0,1-1.67.83,2.23,2.23,0,0,1-.94-.21l-23.4-12.82a4.12,4.12,0,0,1-1.55-1.53,4.29,4.29,0,0,1-.56-2.18v-.57a4.29,4.29,0,0,1,.56-2.18,4.13,4.13,0,0,1,1.55-1.54l23.39-12.82a2.23,2.23,0,0,1,1.11-.21,2.51,2.51,0,0,1,1.74,1.19,3.31,3.31,0,0,1,0,3.28,2.78,2.78,0,0,1-1.14,1.11l-21.1,11.44Zm27.39-40.91L500.41,265.7a3.15,3.15,0,0,1-.82,1.44,2,2,0,0,1-1.47.57,2.1,2.1,0,0,1-1.73-.86,3.26,3.26,0,0,1-.67-2.1,4.2,4.2,0,0,1,.18-1l15.55-55.49a3.15,3.15,0,0,1,.81-1.44,2,2,0,0,1,1.47-.57,2.1,2.1,0,0,1,1.73.86,3.26,3.26,0,0,1,.67,2.1,4.2,4.2,0,0,1-.14,1ZM550.5,240a4.29,4.29,0,0,1-.56,2.18,4.13,4.13,0,0,1-1.55,1.54L525,256.55a2,2,0,0,1-.94.21,2.1,2.1,0,0,1-1.67-.83,3.3,3.3,0,0,1-.23-3.65,2.78,2.78,0,0,1,1.14-1.11l21.1-11.45-21.1-11.45a2.78,2.78,0,0,1-1.14-1.11,3.3,3.3,0,0,1,.23-3.65,2.1,2.1,0,0,1,1.67-.83,2,2,0,0,1,.94.21l23.39,12.82a4.2,4.2,0,0,1,1.55,1.54,4.29,4.29,0,0,1,.56,2.18Z"/></g><rect class="cls-1" x="77.42" y="456.4" width="857" height="27" rx="12" ry="12"/><circle class="cls-6" cx="93.29" cy="469.9" r="16.5"/><circle class="cls-6" cx="918.29" cy="469.9" r="16.5"/><circle class="cls-6" cx="506.29" cy="469.9" r="16.5"/><circle class="cls-6" cx="712.29" cy="469.9" r="16.5"/><circle class="cls-6" cx="300.29" cy="469.9" r="16.5"/><path class="cls-2" d="M0,422.19H4.31L7,426.53l2.65-4.35h4.31v12.37H9.81v-6.13L7,432.82H6.89L4,428.42v6.13H0Z"/><path class="cls-2" d="M14.93,429.77v0a5.19,5.19,0,0,1,5.44-5.05,5.15,5.15,0,0,1,5.41,5v0a5.19,5.19,0,0,1-5.44,5.05A5.15,5.15,0,0,1,14.93,429.77Zm7,0v0A1.65,1.65,0,0,0,20.34,428a1.6,1.6,0,0,0-1.56,1.68v0a1.65,1.65,0,0,0,1.59,1.71A1.6,1.6,0,0,0,21.93,429.77Z"/><path class="cls-2" d="M26.68,424.91h4v1.34a3.73,3.73,0,0,1,3-1.57c2,0,3.3,1.34,3.3,3.52v6.36h-4v-5.07a1.15,1.15,0,0,0-1.1-1.31,1.19,1.19,0,0,0-1.15,1.31v5.07h-4Z"/><path class="cls-2" d="M38.82,431.32V428H37.69v-3.09h1.13v-2.42h4v2.42h2.23V428H42.83v2.44c0,.72.34,1,1,1a3,3,0,0,0,1.22-.3v3.09a5.78,5.78,0,0,1-2.56.55C40.09,434.77,38.82,433.67,38.82,431.32Z"/><path class="cls-2" d="M46,421.66h4v4.54a3.69,3.69,0,0,1,3-1.52c2,0,3.3,1.34,3.3,3.52v6.36h-4v-5.07a1.15,1.15,0,0,0-1.1-1.31A1.19,1.19,0,0,0,50,429.48v5.07H46Z"/><path class="cls-2" d="M57.46,422.19h4.13v4.37h3.78v-4.37h4.13v12.37H65.38v-4.44H61.59v4.44H57.46Z"/><path class="cls-2" d="M75.23,422.1h4.1l5.21,12.46H80.06l-.65-1.66H75.07l-.64,1.66H70ZM78.38,430l-1.13-3-1.13,3Z"/><path class="cls-2" d="M84,428.41v0a6.39,6.39,0,0,1,6.57-6.45,6.06,6.06,0,0,1,5.6,3.22l-3.41,2a2.4,2.4,0,0,0-2.24-1.5,2.46,2.46,0,0,0-2.31,2.7v0c0,1.61,1,2.74,2.31,2.74a2.53,2.53,0,0,0,2.33-1.56l3.41,1.93A6.55,6.55,0,0,1,84,428.41Z"/><path class="cls-2" d="M97,422.19h4.13v4.63l3.52-4.63h4.81l-4.31,5.37,4.4,7h-4.93l-2.42-3.92-1.06,1.29v2.63H97Z"/><path class="cls-2" d="M108.73,432.7l2.21-2.63a7.09,7.09,0,0,0,4.33,1.45c.74,0,1.06-.19,1.06-.53v0c0-.35-.39-.55-1.71-.81-2.77-.57-5.21-1.36-5.21-4v0c0-2.35,1.84-4.17,5.25-4.17a8.56,8.56,0,0,1,5.58,1.7l-2,2.79a6.48,6.48,0,0,0-3.71-1.22c-.62,0-.9.21-.9.51v0c0,.34.34.55,1.64.8,3.16.58,5.28,1.5,5.28,4v0c0,2.6-2.14,4.19-5.46,4.19A9.56,9.56,0,0,1,108.73,432.7Z"/><path class="cls-2" d="M126,422.19h4.13v4.63l3.52-4.63h4.81l-4.31,5.37,4.4,7h-4.93l-2.42-3.92-1.06,1.29v2.63H126Z"/><path class="cls-2" d="M138.73,421.66h4.15v2.56h-4.15Zm.07,3.25h4v9.65h-4Z"/><path class="cls-2" d="M143.75,429.79v0A5.07,5.07,0,0,1,149,424.7a4.61,4.61,0,0,1,4.36,2.67L150.5,429a1.55,1.55,0,0,0-1.41-1,1.57,1.57,0,0,0-1.48,1.7v0a1.57,1.57,0,0,0,1.43,1.73,1.67,1.67,0,0,0,1.5-1l2.92,1.66a4.87,4.87,0,0,1-4.63,2.63A5,5,0,0,1,143.75,429.79Z"/><path class="cls-2" d="M154.07,421.66h4v6.22l2.07-3h4.36l-3,3.92,3.07,5.72h-4.29l-1.4-2.65-.79,1v1.63h-4Z"/><path class="cls-2" d="M164,429.77v0a5.44,5.44,0,0,1,10.85,0v0a5.44,5.44,0,0,1-10.85,0Zm7,0v0a1.65,1.65,0,0,0-1.59-1.71,1.6,1.6,0,0,0-1.56,1.68v0a1.65,1.65,0,0,0,1.59,1.71A1.6,1.6,0,0,0,171,429.77Z"/><path class="cls-2" d="M176.32,428h-1.13v-3.09h1.13a3.39,3.39,0,0,1,.87-2.46,3.67,3.67,0,0,1,2.83-.92,8.72,8.72,0,0,1,2.46.26v2.51a5.51,5.51,0,0,0-1.29-.14c-.62,0-.94.25-.94.78V425h2.23v3h-2.14v6.56h-4Zm7.53,0h-1.13v-3h1.13a3.45,3.45,0,0,1,.87-2.56,3.67,3.67,0,0,1,2.83-.92,8.71,8.71,0,0,1,2.46.26v2.51a5.51,5.51,0,0,0-1.29-.14c-.62,0-.94.25-.94.78V425H190v3h-2.14v6.56h-4Z"/><path d="M262.73,422.19H267l2.65,4.35,2.65-4.35h4.31v12.37h-4.12v-6.13l-2.85,4.4h-.07l-2.85-4.4v6.13h-4Z"/><path d="M277.59,431.82v0c0-1.93,1.43-3,3.68-3a7.52,7.52,0,0,1,2.28.35V429c0-.88-.55-1.4-1.78-1.4a7,7,0,0,0-2.67.55l-.71-2.67a11,11,0,0,1,4.06-.71c2,0,3.23.41,4.08,1.25a4,4,0,0,1,1,3.06v5.5h-4v-1a3.63,3.63,0,0,1-2.77,1.2A2.86,2.86,0,0,1,277.59,431.82Zm6-.83v-.41a2.75,2.75,0,0,0-.92-.16,1.1,1.1,0,0,0-1.24,1.08v0a.9.9,0,0,0,.92.94C283.05,432.47,283.58,431.91,283.58,431Z"/><path d="M288.67,424.91h4v1.94a2.93,2.93,0,0,1,3-2.08V429h-.42c-1.7,0-2.6.94-2.6,3.07v2.46h-4Z"/><path d="M300.21,432.79l2.28-2.65a5,5,0,0,0,3.06,1.34c1,0,1.55-.51,1.55-1.18v0c0-.72-.58-1.18-1.45-1.18a2.92,2.92,0,0,0-1.89.78l-2.49-1.24.35-6.43h8.92v3.27H304.7l-.09,1.61a4.24,4.24,0,0,1,2.35-.67,3.89,3.89,0,0,1,4.13,3.9v0c0,2.86-2.35,4.49-5.5,4.49A7.54,7.54,0,0,1,300.21,432.79Z"/><path d="M316.43,427.35h6.15v3.29h-6.15Z"/><path d="M328.2,433.37,330,430.7a4.23,4.23,0,0,0,2.6.94c1.33,0,2-.83,2.17-2.35a3.82,3.82,0,0,1-2.74,1.15,3.76,3.76,0,0,1-3.89-3.83v0c0-3,2.28-4.65,5.14-4.65a5.22,5.22,0,0,1,4,1.52,6.19,6.19,0,0,1,1.5,4.51v0c0,4.06-2.16,6.84-6,6.84A7.45,7.45,0,0,1,328.2,433.37Zm6.59-7v0a1.41,1.41,0,0,0-1.38-1.48,1.36,1.36,0,0,0-1.34,1.47v0a1.34,1.34,0,0,0,1.38,1.4A1.32,1.32,0,0,0,334.79,426.41Z"/><path class="cls-2" d="M431,422.19h4.31l2.65,4.35,2.65-4.35h4.31v12.37h-4.12v-6.13l-2.85,4.4h-.07l-2.85-4.4v6.13h-4Z"/><path class="cls-2" d="M446.22,421.66h4.15v2.56h-4.15Zm.07,3.25h4v9.65h-4Z"/><path class="cls-2" d="M451.25,429.8v0c0-3.06,1.84-5.09,4.12-5.09a3.6,3.6,0,0,1,2.9,1.33v-4.35h4v12.9h-4v-1.18a3.58,3.58,0,0,1-2.86,1.41C453.07,434.79,451.25,432.75,451.25,429.8Zm7.1-.05v0a1.61,1.61,0,1,0-3.22,0v0a1.61,1.61,0,1,0,3.22,0Z"/><path class="cls-2" d="M463.48,424.91h4v1.18a3.58,3.58,0,0,1,2.86-1.41c2.33,0,4.15,2,4.15,5v0c0,3.06-1.84,5.09-4.12,5.09a3.6,3.6,0,0,1-2.9-1.33v3.92h-4Zm7.14,4.84v0a1.61,1.61,0,1,0-3.22,0v0a1.61,1.61,0,1,0,3.22,0Z"/><path class="cls-2" d="M475.12,429.77v0a5.44,5.44,0,0,1,10.85,0v0a5.44,5.44,0,0,1-10.85,0Zm7,0v0a1.65,1.65,0,0,0-1.59-1.71A1.6,1.6,0,0,0,479,429.7v0a1.65,1.65,0,0,0,1.59,1.71A1.6,1.6,0,0,0,482.12,429.77Z"/><path class="cls-2" d="M486.84,421.66H491v2.56h-4.15Zm.07,3.25h4v9.65h-4Z"/><path class="cls-2" d="M492.15,424.91h4v1.34a3.73,3.73,0,0,1,3-1.57c2,0,3.3,1.34,3.3,3.52v6.36h-4v-5.07a1.15,1.15,0,0,0-1.1-1.31,1.19,1.19,0,0,0-1.15,1.31v5.07h-4Z"/><path class="cls-2" d="M504.29,431.32V428h-1.13v-3.09h1.13v-2.42h4v2.42h2.23V428H508.3v2.44c0,.72.33,1,1,1a3,3,0,0,0,1.22-.3v3.09a5.78,5.78,0,0,1-2.56.55C505.56,434.77,504.29,433.67,504.29,431.32Z"/><path class="cls-2" d="M516,422.19h4.31l2.65,4.35,2.65-4.35h4.31v12.37h-4.12v-6.13l-2.85,4.4h-.07l-2.85-4.4v6.13h-4Z"/><path class="cls-2" d="M531,429.79v0a4.87,4.87,0,0,1,5-5.07c3.43,0,5,2.38,5,5.32,0,.21,0,.46,0,.67h-6.2a1.8,1.8,0,0,0,1.82,1.29,2.69,2.69,0,0,0,2-1l2.16,1.71a5.22,5.22,0,0,1-4.4,2.1C533.09,434.79,531,432.79,531,429.79Zm6.33-.88c-.09-.92-.64-1.45-1.34-1.45s-1.15.57-1.27,1.45Z"/><path class="cls-2" d="M541.52,429.79v0a4.88,4.88,0,0,1,5-5.07c3.43,0,5,2.38,5,5.32,0,.21,0,.46,0,.67h-6.2A1.8,1.8,0,0,0,547.1,432a2.69,2.69,0,0,0,2-1l2.16,1.71a5.22,5.22,0,0,1-4.4,2.1C543.66,434.79,541.52,432.79,541.52,429.79Zm6.33-.88c-.09-.92-.63-1.45-1.34-1.45s-1.15.57-1.27,1.45Z"/><path class="cls-2" d="M553.13,431.32V428H552v-3.09h1.13v-2.42h4v2.42h2.23V428h-2.23v2.44c0,.72.33,1,1,1a3,3,0,0,0,1.22-.3v3.09a5.78,5.78,0,0,1-2.56.55C554.4,434.77,553.13,433.67,553.13,431.32Z"/><path class="cls-2" d="M560.2,431.27v-6.36h4V430a1.15,1.15,0,0,0,1.1,1.31,1.19,1.19,0,0,0,1.15-1.31v-5.07h4v9.65h-4v-1.29a3.69,3.69,0,0,1-3,1.52C561.47,434.79,560.2,433.44,560.2,431.27Z"/><path class="cls-2" d="M571.66,424.91h4v1.18a3.58,3.58,0,0,1,2.86-1.41c2.33,0,4.15,2,4.15,5v0c0,3.06-1.84,5.09-4.12,5.09a3.6,3.6,0,0,1-2.9-1.33v3.92h-4Zm7.14,4.84v0a1.61,1.61,0,1,0-3.22,0v0a1.61,1.61,0,1,0,3.22,0Z"/><path d="M685,422.19h4.31l2.65,4.35,2.65-4.35h4.31v12.37H694.8v-6.13l-2.84,4.4h-.07l-2.85-4.4v6.13h-4Z"/><path d="M699.85,431.82v0c0-1.93,1.43-3,3.68-3a7.51,7.51,0,0,1,2.28.35V429c0-.88-.55-1.4-1.78-1.4a7,7,0,0,0-2.67.55l-.71-2.67a11,11,0,0,1,4.06-.71c2,0,3.23.41,4.08,1.25a4,4,0,0,1,1,3.06v5.5h-4v-1a3.64,3.64,0,0,1-2.77,1.2A2.86,2.86,0,0,1,699.85,431.82Zm6-.83v-.41a2.74,2.74,0,0,0-.92-.16,1.1,1.1,0,0,0-1.24,1.08v0a.9.9,0,0,0,.92.94C705.31,432.47,705.84,431.91,705.84,431Z"/><path d="M710.93,424.91h4v1.94a2.93,2.93,0,0,1,3-2.08V429h-.42c-1.7,0-2.6.94-2.6,3.07v2.46h-4Z"/><path d="M722.84,431.55l5.12-3.67c.78-.55,1.08-1,1.08-1.5s-.41-.92-1.11-.92-1.36.44-2.38,1.54l-2.72-2.31a6.31,6.31,0,0,1,5.46-2.72c2.83,0,4.86,1.7,4.86,4v0c0,1.89-1,2.92-2.49,3.87l-2.21,1.41h4.82v3.23H722.84Z"/><path d="M736.2,425.72l-2,.44-.74-3.06,3.69-1h3.13v12.46H736.2Z"/><path class="cls-2" d="M841.68,432.7l2.21-2.63a7.09,7.09,0,0,0,4.33,1.45c.74,0,1.06-.19,1.06-.53v0c0-.35-.39-.55-1.71-.81-2.77-.57-5.21-1.36-5.21-4v0c0-2.35,1.84-4.17,5.25-4.17a8.56,8.56,0,0,1,5.58,1.7l-2,2.79a6.48,6.48,0,0,0-3.71-1.22c-.62,0-.9.21-.9.51v0c0,.34.34.55,1.64.8,3.16.58,5.28,1.5,5.28,4v0c0,2.6-2.14,4.19-5.46,4.19A9.56,9.56,0,0,1,841.68,432.7Z"/><path class="cls-2" d="M854.26,431.27v-6.36h4V430a1.15,1.15,0,0,0,1.1,1.31,1.19,1.19,0,0,0,1.15-1.31v-5.07h4v9.65h-4v-1.29a3.69,3.69,0,0,1-3,1.52C855.53,434.79,854.26,433.44,854.26,431.27Z"/><path class="cls-2" d="M869.74,433.46v1.1h-4v-12.9h4v4.43a3.57,3.57,0,0,1,2.86-1.41c2.33,0,4.15,2,4.15,5v0c0,3.06-1.84,5.09-4.12,5.09A3.6,3.6,0,0,1,869.74,433.46Zm3.13-3.71v0a1.61,1.61,0,1,0-3.22,0v0a1.61,1.61,0,1,0,3.22,0Z"/><path class="cls-2" d="M877.67,424.91h4v1.29a3.67,3.67,0,0,1,2.92-1.52,3,3,0,0,1,2.84,1.59,4.14,4.14,0,0,1,3.27-1.59,3.18,3.18,0,0,1,3.34,3.52v6.36h-4v-5.11c0-.81-.48-1.27-1.06-1.27a1.15,1.15,0,0,0-1.11,1.27v5.11h-4v-5.11c0-.81-.48-1.27-1.06-1.27a1.15,1.15,0,0,0-1.11,1.27v5.11h-4Z"/><path class="cls-2" d="M895.14,421.66h4.15v2.56h-4.15Zm.07,3.25h4v9.65h-4Z"/><path class="cls-2" d="M899.77,433.39l1.36-2.28a7,7,0,0,0,3.57,1.08c.39,0,.58-.09.58-.32v0c0-.19-.18-.32-1.15-.57-2.44-.6-3.94-1.25-3.94-3.25v0c0-2.12,1.7-3.3,4.21-3.3a8.57,8.57,0,0,1,4.33,1.11l-1.27,2.39a7.13,7.13,0,0,0-3.07-.9c-.39,0-.57.11-.57.3v0c0,.19.21.32,1.18.57,2.44.6,3.91,1.27,3.91,3.25v0c0,2.1-1.57,3.32-4.19,3.32A8.83,8.83,0,0,1,899.77,433.39Z"/><path class="cls-2" d="M908.87,433.39l1.36-2.28a7,7,0,0,0,3.57,1.08c.39,0,.58-.09.58-.32v0c0-.19-.18-.32-1.15-.57-2.44-.6-3.94-1.25-3.94-3.25v0c0-2.12,1.7-3.3,4.21-3.3a8.57,8.57,0,0,1,4.33,1.11l-1.27,2.39a7.13,7.13,0,0,0-3.08-.9c-.39,0-.57.11-.57.3v0c0,.19.21.32,1.18.57,2.44.6,3.91,1.27,3.91,3.25v0c0,2.1-1.57,3.32-4.19,3.32A8.83,8.83,0,0,1,908.87,433.39Z"/><path class="cls-2" d="M918.8,421.66H923v2.56H918.8Zm.07,3.25h4v9.65h-4Z"/><path class="cls-2" d="M923.82,429.77v0a5.44,5.44,0,0,1,10.85,0v0a5.44,5.44,0,0,1-10.85,0Zm7,0v0a1.65,1.65,0,0,0-1.59-1.71,1.6,1.6,0,0,0-1.55,1.68v0a1.65,1.65,0,0,0,1.59,1.71A1.6,1.6,0,0,0,930.82,429.77Z"/><path class="cls-2" d="M935.57,424.91h4v1.34a3.73,3.73,0,0,1,3-1.57c2,0,3.3,1.34,3.3,3.52v6.36h-4v-5.07a1.15,1.15,0,0,0-1.1-1.31,1.19,1.19,0,0,0-1.15,1.31v5.07h-4Z"/><path class="cls-2" d="M946.28,433.39l1.36-2.28a7,7,0,0,0,3.57,1.08c.39,0,.58-.09.58-.32v0c0-.19-.18-.32-1.15-.57-2.44-.6-3.94-1.25-3.94-3.25v0c0-2.12,1.7-3.3,4.21-3.3a8.57,8.57,0,0,1,4.33,1.11L954,428.18a7.13,7.13,0,0,0-3.07-.9c-.39,0-.57.11-.57.3v0c0,.19.21.32,1.18.57,2.44.6,3.91,1.27,3.91,3.25v0c0,2.1-1.57,3.32-4.19,3.32A8.83,8.83,0,0,1,946.28,433.39Z"/><path class="cls-2" d="M960.83,422.19h4.74c4.91,0,7.37,2.42,7.37,6.08v0c0,3.66-2.51,6.25-7.51,6.25h-4.59Zm4.82,8.76c1.89,0,3.11-.78,3.11-2.56v0c0-1.78-1.22-2.56-3.11-2.56H965V431Z"/><path class="cls-2" d="M973.89,431.27v-6.36h4V430a1.15,1.15,0,0,0,1.1,1.31,1.19,1.19,0,0,0,1.15-1.31v-5.07h4v9.65h-4v-1.29a3.69,3.69,0,0,1-3,1.52C975.16,434.79,973.89,433.44,973.89,431.27Z"/><path class="cls-2" d="M985.06,429.79v0a4.88,4.88,0,0,1,5-5.07c3.43,0,5,2.38,5,5.32,0,.21,0,.46,0,.67h-6.2a1.8,1.8,0,0,0,1.82,1.29,2.68,2.68,0,0,0,2-1l2.16,1.71a5.22,5.22,0,0,1-4.4,2.1C987.2,434.79,985.06,432.79,985.06,429.79Zm6.33-.88c-.09-.92-.64-1.45-1.34-1.45s-1.15.57-1.27,1.45Z"/><path d="M65.25,505.19H75.6v3.53H69.39v1.57h5.78v3.22H69.39v4H65.25Z"/><path d="M75.9,512.79v0a4.88,4.88,0,0,1,5-5.07c3.43,0,5,2.38,5,5.32,0,.21,0,.46,0,.67h-6.2A1.8,1.8,0,0,0,81.49,515a2.69,2.69,0,0,0,2-1l2.16,1.71a5.22,5.22,0,0,1-4.4,2.1C78,517.79,75.9,515.79,75.9,512.79Zm6.33-.88c-.09-.92-.64-1.45-1.34-1.45s-1.15.57-1.27,1.45Z"/><path d="M90.78,516.46v1.1h-4v-12.9h4v4.43a3.58,3.58,0,0,1,2.86-1.41c2.33,0,4.15,2,4.15,5v0c0,3.06-1.84,5.09-4.12,5.09A3.6,3.6,0,0,1,90.78,516.46Zm3.13-3.71v0a1.61,1.61,0,1,0-3.22,0v0a1.61,1.61,0,1,0,3.22,0Z"/><path d="M102.9,514.55l5.12-3.67c.78-.55,1.08-1,1.08-1.5s-.41-.92-1.11-.92-1.36.44-2.39,1.54l-2.72-2.31a6.31,6.31,0,0,1,5.46-2.72c2.83,0,4.86,1.7,4.86,4v0c0,1.89-1,2.92-2.49,3.87l-2.21,1.41h4.82v3.23H102.9Z"/><path d="M113.82,514.15v0a3.1,3.1,0,0,1,2.23-3,3,3,0,0,1-1.8-2.69v0c0-2,2-3.46,5-3.46s5,1.43,5,3.46v0a3,3,0,0,1-1.8,2.69,3.11,3.11,0,0,1,2.23,3v0c0,2.16-2.19,3.64-5.39,3.64S113.82,516.28,113.82,514.15Zm6.82-.46v0a1.45,1.45,0,0,0-2.86,0v0a1.45,1.45,0,0,0,2.86,0ZM120.5,509v0a1.3,1.3,0,0,0-2.58,0v0a1.29,1.29,0,0,0,2.58,0Z"/><path class="cls-2" d="M207,515.7l2.21-2.63a7.09,7.09,0,0,0,4.33,1.45c.74,0,1.06-.19,1.06-.53v0c0-.35-.39-.55-1.71-.81-2.77-.57-5.21-1.36-5.21-4v0c0-2.35,1.84-4.17,5.25-4.17a8.56,8.56,0,0,1,5.58,1.7l-2,2.79a6.48,6.48,0,0,0-3.71-1.22c-.62,0-.9.21-.9.51v0c0,.34.34.55,1.64.8,3.16.58,5.28,1.5,5.28,4v0c0,2.6-2.14,4.19-5.46,4.19A9.56,9.56,0,0,1,207,515.7Z"/><path class="cls-2" d="M219.64,507.91h4v1.18a3.58,3.58,0,0,1,2.86-1.41c2.33,0,4.15,2,4.15,5v0c0,3.06-1.84,5.09-4.12,5.09a3.6,3.6,0,0,1-2.9-1.33v3.92h-4Zm7.14,4.84v0a1.61,1.61,0,1,0-3.22,0v0a1.61,1.61,0,1,0,3.22,0Z"/><path class="cls-2" d="M231.58,507.91h4v1.94a2.93,2.93,0,0,1,3-2.08V512h-.42c-1.7,0-2.6.94-2.6,3.07v2.46h-4Z"/><path class="cls-2" d="M239.27,504.66h4.15v2.56h-4.15Zm.07,3.25h4v9.65h-4Z"/><path class="cls-2" d="M244.59,507.91h4v1.34a3.73,3.73,0,0,1,3-1.57c2,0,3.3,1.34,3.3,3.52v6.36h-4v-5.07a1.15,1.15,0,0,0-1.1-1.31,1.19,1.19,0,0,0-1.15,1.31v5.07h-4Z"/><path class="cls-2" d="M255.77,519.22,257,516.8a7.2,7.2,0,0,0,3.48.92c1.5,0,2.3-.78,2.3-2.12v-.28a3.67,3.67,0,0,1-2.79,1.33,4.17,4.17,0,0,1-4.29-4.43v0a4.17,4.17,0,0,1,4.06-4.49,3.79,3.79,0,0,1,3,1.25v-1h4v7.21a5.13,5.13,0,0,1-1.25,3.89,5.8,5.8,0,0,1-4.35,1.41A11.46,11.46,0,0,1,255.77,519.22Zm7-7v0a1.61,1.61,0,0,0-3.22,0v0a1.61,1.61,0,0,0,3.22,0Z"/><path class="cls-2" d="M272.52,505.19h6.93A4.68,4.68,0,0,1,283,506.3a2.64,2.64,0,0,1,.76,1.93v0a2.89,2.89,0,0,1-2.21,2.83c1.59.46,2.62,1.31,2.62,3v0c0,2-1.63,3.43-4.75,3.43h-6.86Zm5.83,4.86c.88,0,1.31-.3,1.31-.85v0c0-.55-.44-.85-1.33-.85h-1.78V510Zm.27,4.38c.9,0,1.36-.37,1.36-.9v0c0-.53-.44-.9-1.34-.9h-2.08v1.84Z"/><path class="cls-2" d="M284.93,507.91h4v1.94a2.93,2.93,0,0,1,3-2.08V512h-.42c-1.7,0-2.6.94-2.6,3.07v2.46h-4Z"/><path class="cls-2" d="M292.26,512.79v0a4.88,4.88,0,0,1,5-5.07c3.43,0,5,2.38,5,5.32,0,.21,0,.46,0,.67H296a1.8,1.8,0,0,0,1.82,1.29,2.68,2.68,0,0,0,2-1l2.16,1.71a5.22,5.22,0,0,1-4.4,2.1C294.4,517.79,292.26,515.79,292.26,512.79Zm6.33-.88c-.09-.92-.64-1.45-1.34-1.45s-1.15.57-1.27,1.45Z"/><path class="cls-2" d="M302.75,514.82v0c0-1.93,1.43-3,3.68-3a7.52,7.52,0,0,1,2.28.35V512c0-.88-.55-1.4-1.78-1.4a7,7,0,0,0-2.67.55l-.71-2.67a11,11,0,0,1,4.06-.71c2,0,3.23.41,4.08,1.25a4,4,0,0,1,1,3.06v5.5h-4v-1a3.63,3.63,0,0,1-2.77,1.2A2.86,2.86,0,0,1,302.75,514.82Zm6-.83v-.41a2.75,2.75,0,0,0-.92-.16,1.1,1.1,0,0,0-1.24,1.08v0a.9.9,0,0,0,.92.94C308.21,515.47,308.74,514.91,308.74,514Z"/><path class="cls-2" d="M313.83,504.66h4v6.22l2.07-3h4.36l-3,3.92,3.07,5.72H320l-1.4-2.65-.79,1v1.63h-4Z"/><path class="cls-2" d="M337.12,516.67a6.44,6.44,0,0,1-3.73,1.11c-2.67,0-4.66-1.27-4.66-3.57v0a3.73,3.73,0,0,1,2.61-3.5,3.92,3.92,0,0,1-.76-2.3v0c0-1.87,1.56-3.43,4-3.43s3.87,1.38,3.87,3.22v0a3.63,3.63,0,0,1-2.23,3.2l1.11,1.08a16.06,16.06,0,0,0,1.13-1.82l2.53,1.18a21.39,21.39,0,0,1-1.64,2.6l1.52,1.47-2.63,1.93Zm-2-2-1.71-1.75a1.3,1.3,0,0,0-.62,1.08v0c0,.6.46,1,1.17,1A2.52,2.52,0,0,0,335.16,514.62Zm.23-6.27v0a.74.74,0,0,0-.74-.83c-.46,0-.78.37-.78.94v0a2.19,2.19,0,0,0,.55,1.29A1.56,1.56,0,0,0,335.39,508.35Z"/><path class="cls-2" d="M345.11,515.7l2.21-2.63a7.09,7.09,0,0,0,4.33,1.45c.74,0,1.06-.19,1.06-.53v0c0-.35-.39-.55-1.71-.81-2.77-.57-5.21-1.36-5.21-4v0c0-2.35,1.84-4.17,5.25-4.17a8.56,8.56,0,0,1,5.58,1.7l-2,2.79a6.48,6.48,0,0,0-3.71-1.22c-.62,0-.9.21-.9.51v0c0,.34.34.55,1.64.8,3.16.58,5.28,1.5,5.28,4v0c0,2.6-2.14,4.19-5.46,4.19A9.56,9.56,0,0,1,345.11,515.7Z"/><path class="cls-2" d="M357.79,504.66h4v12.9h-4Z"/><path class="cls-2" d="M362.67,514.82v0c0-1.93,1.43-3,3.68-3a7.52,7.52,0,0,1,2.28.35V512c0-.88-.55-1.4-1.78-1.4a7,7,0,0,0-2.67.55l-.71-2.67a11,11,0,0,1,4.06-.71c2,0,3.23.41,4.08,1.25a4,4,0,0,1,1,3.06v5.5h-4v-1a3.63,3.63,0,0,1-2.77,1.2A2.86,2.86,0,0,1,362.67,514.82Zm6-.83v-.41a2.75,2.75,0,0,0-.92-.16,1.1,1.1,0,0,0-1.24,1.08v0a.9.9,0,0,0,.92.94C368.13,515.47,368.66,514.91,368.66,514Z"/><path class="cls-2" d="M373.45,512.79v0a5.07,5.07,0,0,1,5.27-5.05,4.61,4.61,0,0,1,4.36,2.67L380.2,512a1.55,1.55,0,0,0-1.41-1,1.57,1.57,0,0,0-1.48,1.7v0a1.57,1.57,0,0,0,1.43,1.73,1.67,1.67,0,0,0,1.5-1l2.92,1.66a4.87,4.87,0,0,1-4.63,2.63A5,5,0,0,1,373.45,512.79Z"/><path class="cls-2" d="M383.76,504.66h4v6.22l2.07-3h4.36l-3,3.92,3.07,5.72H390l-1.4-2.65-.79,1v1.63h-4Z"/><path d="M478.43,505.19h4.31l2.65,4.35,2.65-4.35h4.31v12.37h-4.12v-6.13l-2.85,4.4h-.07l-2.85-4.4v6.13h-4Z"/><path d="M493.29,514.82v0c0-1.93,1.43-3,3.67-3a7.52,7.52,0,0,1,2.28.35V512c0-.88-.55-1.4-1.79-1.4a7,7,0,0,0-2.67.55l-.71-2.67a11,11,0,0,1,4.06-.71c2,0,3.23.41,4.08,1.25a4,4,0,0,1,1,3.06v5.5h-4v-1a3.63,3.63,0,0,1-2.77,1.2A2.85,2.85,0,0,1,493.29,514.82Zm6-.83v-.41a2.76,2.76,0,0,0-.92-.16,1.1,1.1,0,0,0-1.24,1.08v0a.9.9,0,0,0,.92.94C498.74,515.47,499.28,514.91,499.28,514Z"/><path d="M504.36,507.91h4v1.94a2.93,2.93,0,0,1,3-2.08V512H511c-1.7,0-2.6.94-2.6,3.07v2.46h-4Z"/><path d="M518.59,508.72l-2,.44-.74-3.06,3.69-1h3.13v12.46h-4.06Z"/><path d="M530,515.42h-6l-.67-2.9,6-7.42H534v7.4h1.48v2.92H534v2.14h-4Zm0-2.86v-3.29l-2.63,3.29Z"/><path class="cls-2" d="M679.52,505.19h4.31l2.65,4.35,2.65-4.35h4.31v12.37h-4.12v-6.13l-2.85,4.4h-.07l-2.85-4.4v6.13h-4Z"/><path class="cls-2" d="M694.45,512.79v0a4.87,4.87,0,0,1,5-5.07c3.43,0,5,2.38,5,5.32,0,.21,0,.46,0,.67h-6.2A1.8,1.8,0,0,0,700,515a2.69,2.69,0,0,0,2-1l2.16,1.71a5.22,5.22,0,0,1-4.4,2.1C696.59,517.79,694.45,515.79,694.45,512.79Zm6.33-.88c-.09-.92-.64-1.45-1.34-1.45s-1.15.57-1.27,1.45Z"/><path class="cls-2" d="M705,512.79v0a4.88,4.88,0,0,1,5-5.07c3.43,0,5,2.38,5,5.32,0,.21,0,.46,0,.67h-6.2A1.8,1.8,0,0,0,710.6,515a2.69,2.69,0,0,0,2-1l2.16,1.71a5.22,5.22,0,0,1-4.4,2.1C707.16,517.79,705,515.79,705,512.79Zm6.33-.88c-.09-.92-.63-1.45-1.34-1.45s-1.15.57-1.27,1.45Z"/><path class="cls-2" d="M716.63,514.32V511H715.5v-3.09h1.13v-2.42h4v2.42h2.23V511h-2.23v2.44c0,.72.33,1,1,1a3,3,0,0,0,1.22-.3v3.09a5.78,5.78,0,0,1-2.56.55C717.9,517.77,716.63,516.67,716.63,514.32Z"/><path class="cls-2" d="M723.69,514.27v-6.36h4V513a1.15,1.15,0,0,0,1.1,1.31,1.19,1.19,0,0,0,1.15-1.31v-5.07h4v9.65h-4v-1.29a3.69,3.69,0,0,1-3,1.52C725,517.79,723.69,516.44,723.69,514.27Z"/><path class="cls-2" d="M735.16,507.91h4v1.18a3.58,3.58,0,0,1,2.86-1.41c2.33,0,4.15,2,4.15,5v0c0,3.06-1.84,5.09-4.12,5.09a3.6,3.6,0,0,1-2.9-1.33v3.92h-4Zm7.14,4.84v0a1.61,1.61,0,1,0-3.22,0v0a1.61,1.61,0,1,0,3.22,0Z"/><path d="M889.15,505.19h4.31l2.65,4.35,2.65-4.35h4.31v12.37H899v-6.13l-2.85,4.4H896l-2.85-4.4v6.13h-4Z"/><path d="M904,514.82v0c0-1.93,1.43-3,3.67-3a7.52,7.52,0,0,1,2.28.35V512c0-.88-.55-1.4-1.78-1.4a7,7,0,0,0-2.67.55l-.71-2.67a11,11,0,0,1,4.06-.71c2,0,3.23.41,4.08,1.25a4,4,0,0,1,1,3.06v5.5h-4v-1a3.63,3.63,0,0,1-2.77,1.2A2.86,2.86,0,0,1,904,514.82Zm6-.83v-.41a2.75,2.75,0,0,0-.92-.16,1.1,1.1,0,0,0-1.24,1.08v0a.9.9,0,0,0,.92.94C909.47,515.47,910,514.91,910,514Z"/><path d="M915.09,507.91h4v1.94a2.93,2.93,0,0,1,3-2.08V512h-.42c-1.7,0-2.6.94-2.6,3.07v2.46h-4Z"/><path d="M927,514.55l5.12-3.67c.78-.55,1.08-1,1.08-1.5s-.41-.92-1.11-.92-1.36.44-2.38,1.54L927,507.68a6.31,6.31,0,0,1,5.46-2.72c2.83,0,4.86,1.7,4.86,4v0c0,1.89-1,2.92-2.49,3.87l-2.21,1.41h4.82v3.23H927Z"/><path d="M937.92,514.15v0a3.1,3.1,0,0,1,2.23-3,3,3,0,0,1-1.8-2.69v0c0-2,2-3.46,5-3.46s5,1.43,5,3.46v0a3,3,0,0,1-1.8,2.69,3.11,3.11,0,0,1,2.23,3v0c0,2.16-2.19,3.64-5.39,3.64S937.92,516.28,937.92,514.15Zm6.82-.46v0a1.45,1.45,0,0,0-2.86,0v0a1.45,1.45,0,0,0,2.86,0ZM944.6,509v0a1.3,1.3,0,0,0-2.58,0v0a1.29,1.29,0,0,0,2.58,0Z"/><path class="cls-7" d="M393.42,50.29h9.5v10h8.69v-10h9.5V78.7h-9.5V68.52h-8.69V78.7h-9.5Z"/><path class="cls-7" d="M423.25,72.41v-.08c0-4.42,3.29-6.9,8.44-6.9a17.26,17.26,0,0,1,5.24.81v-.37c0-2-1.26-3.21-4.1-3.21a16.05,16.05,0,0,0-6.13,1.26l-1.62-6.13a25.34,25.34,0,0,1,9.34-1.62c4.51,0,7.43.93,9.38,2.88,1.66,1.66,2.31,3.81,2.31,7V78.7h-9.21V76.47a8.35,8.35,0,0,1-6.37,2.76C426.25,79.23,423.25,76.8,423.25,72.41ZM437,70.5v-.93a6.34,6.34,0,0,0-2.11-.37c-1.83,0-2.84,1.1-2.84,2.48v.08a2.06,2.06,0,0,0,2.11,2.15C435.79,73.91,437,72.61,437,70.5Z"/><path class="cls-7" d="M448,67.74v-.08c0-6.21,4.87-11.61,12.1-11.61a10.59,10.59,0,0,1,10,6.13l-6.62,3.73a3.56,3.56,0,0,0-3.25-2.23,3.61,3.61,0,0,0-3.41,3.9v.08c0,2.31,1.46,4,3.29,4,1.62,0,2.56-.81,3.45-2.23l6.7,3.82c-2,3.69-5.36,6-10.63,6A11.49,11.49,0,0,1,448,67.74Z"/><path class="cls-7" d="M471.71,49.07h9.21V63.36l4.75-6.82h10l-6.94,9,7.06,13.15H486l-3.21-6.09L480.92,75V78.7h-9.21Z"/><path class="cls-7" d="M496.87,50.29h9.9l6.09,10,6.09-10h9.9V78.7H519.4V64.62l-6.54,10.11h-.16l-6.54-10.11V78.7h-9.29Z"/><path class="cls-7" d="M531,72.41v-.08c0-4.42,3.29-6.9,8.44-6.9a17.26,17.26,0,0,1,5.24.81v-.37c0-2-1.26-3.21-4.1-3.21a16.05,16.05,0,0,0-6.13,1.26l-1.62-6.13a25.34,25.34,0,0,1,9.33-1.62c4.5,0,7.43.93,9.38,2.88,1.66,1.66,2.31,3.81,2.31,7V78.7h-9.21V76.47a8.35,8.35,0,0,1-6.37,2.76C534,79.23,531,76.8,531,72.41Zm13.76-1.91v-.93a6.34,6.34,0,0,0-2.11-.37c-1.83,0-2.84,1.1-2.84,2.48v.08a2.06,2.06,0,0,0,2.11,2.15C543.54,73.91,544.76,72.61,544.76,70.5Z"/><path class="cls-7" d="M556.45,56.54h9.21V61c1.26-3,3.29-5,6.94-4.79V66h-1c-3.9,0-6,2.15-6,7.06V78.7h-9.21Z"/><path class="cls-7" d="M573.29,67.74v-.08c0-6.21,4.87-11.61,12.09-11.61a10.59,10.59,0,0,1,10,6.13l-6.62,3.73a3.56,3.56,0,0,0-3.25-2.23,3.61,3.61,0,0,0-3.41,3.9v.08c0,2.31,1.46,4,3.29,4,1.62,0,2.56-.81,3.45-2.23l6.7,3.82c-2,3.69-5.36,6-10.63,6A11.49,11.49,0,0,1,573.29,67.74Z"/><path class="cls-7" d="M597,49.07h9.21V59.5A8.48,8.48,0,0,1,613,56c4.67,0,7.59,3.08,7.59,8.08V78.7h-9.21V67.05c0-1.91-1.14-3-2.52-3a2.74,2.74,0,0,0-2.64,3V78.7H597Z"/><path class="cls-1" d="M482.84,99.35l5.82-4.17c.88-.62,1.22-1.16,1.22-1.71s-.46-1-1.26-1-1.55.5-2.71,1.75l-3.09-2.63a7.17,7.17,0,0,1,6.2-3.09c3.21,0,5.52,1.93,5.52,4.6v0c0,2.15-1.14,3.31-2.83,4.39l-2.51,1.61h5.48v3.67H482.84Z"/><path class="cls-1" d="M495.61,95.78v0c0-3.87,2.53-7.32,6.78-7.32s6.74,3.41,6.74,7.28v0c0,3.87-2.53,7.32-6.78,7.32S495.61,99.65,495.61,95.78Zm8.87,0v0c0-1.93-.86-3.25-2.13-3.25s-2.09,1.28-2.09,3.21v0c0,1.93.86,3.25,2.13,3.25S504.47,97.71,504.47,95.78Z"/><path class="cls-1" d="M512.16,92.73l-2.29.5L509,89.76l4.19-1.14h3.55v14.15h-4.62Z"/><path class="cls-1" d="M517.86,98.89v0a3.52,3.52,0,0,1,2.53-3.37,3.38,3.38,0,0,1-2-3v0c0-2.31,2.31-3.93,5.64-3.93s5.64,1.63,5.64,3.93v0a3.38,3.38,0,0,1-2,3,3.53,3.53,0,0,1,2.53,3.37v0c0,2.45-2.49,4.13-6.12,4.13S517.86,101.32,517.86,98.89Zm7.75-.52v0a1.65,1.65,0,0,0-3.25,0v0a1.64,1.64,0,0,0,3.25,0ZM525.45,93v0a1.47,1.47,0,0,0-2.93,0v0a1.47,1.47,0,0,0,2.93,0Z"/></svg>